# xmcd CD database file
#
# Track frame offsets:
#	180
#	21773
#	41535
#	66476
#	87107
#	105603
#	117355
#	138596
#	178720
#	204358
#	219575
#	243345
#	261513
#	282196
#	292080
#	318408
#
# Disc length: 4461 seconds
#
# Revision: 3
# Processed by: cddbd v1.5.2PL0 Copyright (c) Steve Scherf et al.
# Submitted via: CDex 1.51
#
DISCID=f7116b10
DTITLE=Various Artist - jazz made in switzerland
DYEAR=2013
DGENRE=Jazz
TTITLE0=Hildegard lernt fliegen - Suite for murderes and drinkers
TTITLE1=Malcolm Braff Trio - Dance Of The Planets
TTITLE2=Yannick Delez - Boreales
TTITLE3=Scope - le short
TTITLE4=Gregor Frei ASMIN - Narcissus
TTITLE5=Phall Fatale - Naughty Girl
TTITLE6=Sylvie Courvoisier Mark Feldmann Quartet - Little Mortise
TTITLE7=Plaistow - Lacrimose (Short Edition) 
TTITLE8=Marco von Orelli 6 - Urban Ways
TTITLE9=Mar Perrenoud Trio - Corbin Drive
TTITLE10=Peter's Playstation - Drawn
TTITLE11=Cowboy from Hell - Big Fish (Radion Edition)
TTITLE12=Tomas Sauter Daniel Schläppi Jorge Rossy - Minor And major Steps
TTITLE13=Brink Man Ship - Horikawa
TTITLE14=Co Streiff and Russ Johnson Quartet - Five Dark Days
TTITLE15=Motek - Jekyll
EXTD=YEAR: 2013
EXTT0=
EXTT1=
EXTT2=
EXTT3=
EXTT4=
EXTT5=
EXTT6=
EXTT7=
EXTT8=
EXTT9=
EXTT10=
EXTT11=
EXTT12=
EXTT13=
EXTT14=
EXTT15=
PLAYORDER=
